<svg xmlns="http://www.w3.org/2000/svg" version="1.1" xmlns:xlink="http://www.w3.org/1999/xlink" xmlns:svgjs="http://svgjs.dev/svgjs" width="2000" height="1252" viewBox="0 0 2000 1252"><g transform="matrix(1,0,0,1,-1.2121212121212466,-2.01935483870966)"><svg viewBox="0 0 396 248" data-background-color="#000000" preserveAspectRatio="xMidYMid meet" height="1252" width="2000" xmlns="http://www.w3.org/2000/svg" xmlns:xlink="http://www.w3.org/1999/xlink"><g id="tight-bounds" transform="matrix(1,0,0,1,0.2400000000000091,0.4000000000000057)"><svg viewBox="0 0 395.52 247.2" height="247.2" width="395.52"><rect width="395.52" height="247.2" fill="url(#5ec862d8-0329-41f0-8955-3fa694c7f62e)" mask="url(#22e8711e-0ce1-4532-9322-ea8b4e7b5e23)" data-fill-palette-color="tertiary"></rect><g><svg></svg></g><g><svg viewBox="0 0 395.52 247.2" height="247.2" width="395.52"><g transform="matrix(1,0,0,1,172.22777142857143,47.215199999999996)"><svg viewBox="0 0 51.06445714285713 152.7696" height="152.7696" width="51.06445714285713"><g><svg viewBox="0 0 51.06445714285713 152.7696" height="152.7696" width="51.06445714285713"><g><svg viewBox="0 0 51.064457142857144 152.76960000000003" height="152.7696" width="51.06445714285713"><g><svg viewBox="0 0 51.064457142857144 152.76960000000003" height="152.76960000000003" width="51.064457142857144"><g id="textblocktransform"><svg viewBox="0 0 51.064457142857144 152.76960000000003" height="152.76960000000003" width="51.064457142857144" id="textblock"><g><svg viewBox="0 0 51.064457142857144 152.76960000000003" height="152.76960000000003" width="51.064457142857144"><g transform="matrix(1,0,0,1,0,0)"><svg width="51.064457142857144" viewBox="1 -35.25 12.05 36.05" height="152.76960000000003" data-palette-color="url(#6be8040f-15ba-4202-b6aa-75cf68387171)"></svg></g></svg></g></svg></g></svg></g></svg></g></svg></g></svg></g><path d="M40.991 41.215L40.991 0 288.191 0 288.191 247.2 40.991 247.2 40.991 205.985 54.768 205.985 54.768 233.423 274.414 233.423 274.414 13.777 54.768 13.777 54.768 41.215Z" fill="url(#5ec862d8-0329-41f0-8955-3fa694c7f62e)" stroke="transparent" data-fill-palette-color="tertiary"></path></svg></g><defs></defs><mask id="71d6d589-a69b-4373-af5b-6d984c6626ab"><g id="SvgjsG2507"><svg viewBox="0 0 395.52 247.2" height="247.2" width="395.52"><g><svg></svg></g><g><svg viewBox="0 0 395.52 247.2" height="247.2" width="395.52"><g transform="matrix(1,0,0,1,172.22777142857143,47.215199999999996)"><svg viewBox="0 0 51.06445714285713 152.7696" height="152.7696" width="51.06445714285713"><g><svg viewBox="0 0 51.06445714285713 152.7696" height="152.7696" width="51.06445714285713"><g><svg viewBox="0 0 51.064457142857144 152.76960000000003" height="152.7696" width="51.06445714285713"><g><svg viewBox="0 0 51.064457142857144 152.76960000000003" height="152.76960000000003" width="51.064457142857144"><g id="SvgjsG2506"><svg viewBox="0 0 51.064457142857144 152.76960000000003" height="152.76960000000003" width="51.064457142857144" id="SvgjsSvg2505"><g><svg viewBox="0 0 51.064457142857144 152.76960000000003" height="152.76960000000003" width="51.064457142857144"><g transform="matrix(1,0,0,1,0,0)"><svg width="51.064457142857144" viewBox="1 -35.25 12.05 36.05" height="152.76960000000003" data-palette-color="url(#6be8040f-15ba-4202-b6aa-75cf68387171)"><path d="M13.05-7.65L8.5-7.65 8.5-35.25 13.05-35.25 13.05-7.65ZM8.5-7.65L13.05-7.65Q13.05-3.65 11.08-1.43 9.1 0.8 5.55 0.8L5.55 0.8 5.15-3.15Q6.2-3.15 6.95-3.68 7.7-4.2 8.1-5.23 8.5-6.25 8.5-7.65L8.5-7.65ZM1-0.75L2.8-4Q3.35-3.65 3.93-3.4 4.5-3.15 5.15-3.15L5.15-3.15 5.55 0.8Q4.35 0.8 3.2 0.4 2.05 0 1-0.75L1-0.75Z" opacity="1" transform="matrix(1,0,0,1,0,0)" fill="white" class="wordmark-text-0" id="SvgjsPath2504"></path></svg></g></svg></g></svg></g></svg></g></svg></g></svg></g></svg></g><path d="M40.991 41.215L40.991 0 288.191 0 288.191 247.2 40.991 247.2 40.991 205.985 54.768 205.985 54.768 233.423 274.414 233.423 274.414 13.777 54.768 13.777 54.768 41.215Z" fill="black" stroke="transparent"></path></svg></g><defs><mask></mask></defs></svg><rect width="395.52" height="247.2" fill="black" stroke="none" visibility="hidden"></rect></g></mask><linearGradient x1="0" x2="1" y1="0.5" y2="0.5" id="6be8040f-15ba-4202-b6aa-75cf68387171"><stop stop-color="#fff72e" offset="0"></stop><stop stop-color="#deae29" offset="1"></stop></linearGradient><rect width="395.52" height="247.2" fill="url(#6be8040f-15ba-4202-b6aa-75cf68387171)" mask="url(#71d6d589-a69b-4373-af5b-6d984c6626ab)" data-fill-palette-color="primary"></rect><mask id="22e8711e-0ce1-4532-9322-ea8b4e7b5e23"><g id="SvgjsG2530"><svg viewBox="0 0 395.52 247.2" height="247.2" width="395.52"><g><svg></svg></g><g><svg viewBox="0 0 395.52 247.2" height="247.2" width="395.52"><g transform="matrix(1,0,0,1,172.22777142857143,47.215199999999996)"><svg viewBox="0 0 51.06445714285713 152.7696" height="152.7696" width="51.06445714285713"><g><svg viewBox="0 0 51.06445714285713 152.7696" height="152.7696" width="51.06445714285713"><g><svg viewBox="0 0 51.064457142857144 152.76960000000003" height="152.7696" width="51.06445714285713"><g><svg viewBox="0 0 51.064457142857144 152.76960000000003" height="152.76960000000003" width="51.064457142857144"><g id="SvgjsG2529"><svg viewBox="0 0 51.064457142857144 152.76960000000003" height="152.76960000000003" width="51.064457142857144" id="SvgjsSvg2528"><g><svg viewBox="0 0 51.064457142857144 152.76960000000003" height="152.76960000000003" width="51.064457142857144"><g transform="matrix(1,0,0,1,0,0)"><svg width="51.064457142857144" viewBox="1 -35.25 12.05 36.05" height="152.76960000000003" data-palette-color="url(#6be8040f-15ba-4202-b6aa-75cf68387171)"></svg></g></svg></g></svg></g></svg></g></svg></g></svg></g></svg></g><path d="M40.991 41.215L40.991 0 288.191 0 288.191 247.2 40.991 247.2 40.991 205.985 54.768 205.985 54.768 233.423 274.414 233.423 274.414 13.777 54.768 13.777 54.768 41.215Z" fill="white" stroke="transparent"></path></svg></g><defs><mask></mask></defs><mask><g id="SvgjsG2527"><svg viewBox="0 0 395.52 247.2" height="247.2" width="395.52"><g><svg></svg></g><g><svg viewBox="0 0 395.52 247.2" height="247.2" width="395.52"><g transform="matrix(1,0,0,1,172.22777142857143,47.215199999999996)"><svg viewBox="0 0 51.06445714285713 152.7696" height="152.7696" width="51.06445714285713"><g><svg viewBox="0 0 51.06445714285713 152.7696" height="152.7696" width="51.06445714285713"><g><svg viewBox="0 0 51.064457142857144 152.76960000000003" height="152.7696" width="51.06445714285713"><g><svg viewBox="0 0 51.064457142857144 152.76960000000003" height="152.76960000000003" width="51.064457142857144"><g id="SvgjsG2526"><svg viewBox="0 0 51.064457142857144 152.76960000000003" height="152.76960000000003" width="51.064457142857144" id="SvgjsSvg2525"><g><svg viewBox="0 0 51.064457142857144 152.76960000000003" height="152.76960000000003" width="51.064457142857144"><g transform="matrix(1,0,0,1,0,0)"><svg width="51.064457142857144" viewBox="1 -35.25 12.05 36.05" height="152.76960000000003" data-palette-color="url(#6be8040f-15ba-4202-b6aa-75cf68387171)"><path d="M13.05-7.65L8.5-7.65 8.5-35.25 13.05-35.25 13.05-7.65ZM8.5-7.65L13.05-7.65Q13.05-3.65 11.08-1.43 9.1 0.8 5.55 0.8L5.55 0.8 5.15-3.15Q6.2-3.15 6.95-3.68 7.7-4.2 8.1-5.23 8.5-6.25 8.5-7.65L8.5-7.65ZM1-0.75L2.8-4Q3.35-3.65 3.93-3.4 4.5-3.15 5.15-3.15L5.15-3.15 5.55 0.8Q4.35 0.8 3.2 0.4 2.05 0 1-0.75L1-0.75Z" opacity="1" transform="matrix(1,0,0,1,0,0)" fill="black" class="wordmark-text-0" id="SvgjsPath2524"></path></svg></g></svg></g></svg></g></svg></g></svg></g></svg></g></svg></g><path d="M40.991 41.215L40.991 0 288.191 0 288.191 247.2 40.991 247.2 40.991 205.985 54.768 205.985 54.768 233.423 274.414 233.423 274.414 13.777 54.768 13.777 54.768 41.215Z" fill="black" stroke="transparent"></path></svg></g><defs><mask></mask></defs></svg><rect width="395.52" height="247.2" fill="black" stroke="none" visibility="hidden"></rect></g></mask></svg><rect width="395.52" height="247.2" fill="black" stroke="none" visibility="hidden"></rect></g></mask><linearGradient x1="0" x2="1" y1="0.5" y2="0.5" id="5ec862d8-0329-41f0-8955-3fa694c7f62e"><stop stop-color="#fff72e" offset="0"></stop><stop stop-color="#deae29" offset="1"></stop></linearGradient></svg><rect width="395.52" height="247.2" fill="none" stroke="none" visibility="hidden"></rect></g></svg></g></svg>